<svg width="250" height="250" viewBox="0 0 250 250" xmlns="http://www.w3.org/2000/svg"
	fill="white">
	<path
		d="M145.113 114.276L133.783 106.823C131.774 105.501 129.508 104.621 127.134 104.242C124.102 103.756 120.995 104.102 118.144 105.243L116.084 106.066C115.367 106.353 114.707 106.765 114.135 107.282C110.726 110.362 108.192 114.288 106.789 118.663L106.418 119.818L105.917 110.818L104 102L105.145 100.727C107.347 98.2802 110.119 96.4144 113.216 95.2956L115.914 94.3207C118.328 93.4481 120.889 93.0487 123.454 93.1443L129.254 93.3602C131.722 93.4521 134.139 94.0843 136.336 95.2123C142.704 98.4818 146.318 105.412 145.353 112.505L145.113 114.276Z M96.195 114.345L96.3208 113.551C96.9522 109.563 99.0364 105.871 102.224 103.095L107.499 98.5003L108.999 97.4998L112.411 106L110.003 112.156C108.229 116.69 110.297 121.681 114.852 123.861L125.658 129.032L120.96 131.124C115.619 133.502 109.401 133.266 104.39 130.496C98.3927 127.18 95.1688 120.827 96.195 114.345Z M98.5267 132.546L109.856 139.999C111.865 141.32 114.131 142.2 116.506 142.58C119.538 143.065 122.644 142.719 125.495 141.579L127.555 140.755C128.272 140.469 128.932 140.057 129.504 139.54C132.913 136.46 135.448 132.533 136.851 128.158L137.221 127.004L137.722 136.004L139.639 144.822L138.494 146.094C136.292 148.541 133.52 150.407 130.424 151.526L127.726 152.501C125.311 153.373 122.751 153.773 120.185 153.677L114.386 153.461C111.918 153.37 109.5 152.737 107.303 151.609C100.935 148.340 97.3212 141.409 98.2859 134.316L98.5267 132.546Z M147.444 132.476L147.318 133.271C146.687 137.259 144.603 140.95 141.415 143.727L136.14 148.321L134.64 149.322L131.228 140.822L133.637 134.665C135.41 130.132 133.342 125.141 128.787 122.961L117.982 117.789L122.679 115.698C128.02 113.32 134.238 113.556 139.249 116.326C145.247 119.641 148.47 125.995 147.444 132.476Z" fill="red"
	/>
</svg>
	
